<svg xmlns="http://www.w3.org/2000/svg" xmlns:xlink="http://www.w3.org/1999/xlink" width="100%" height="100%" viewBox="-0.238748 -0.000591257 1166.48 1166.48" preserveAspectRatio="xMidYMid meet" xmlns:svg="http://www.w3.org/2000/svg" ><defs id="svgEditorDefs"><path id="svgEditorClosePathDefs" stroke="black" fill="khaki" style="stroke-width: 1px;"/></defs><rect id="svgEditorBackground" x="-0.2387479990720749" y="-0.0005912570049986243" width="1166.47998046875" height="1166.47998046875" style="fill: none; stroke: none;"/><path d="M -4 -2.5 v 5 q 0 2 4 2 t 4 -2 v -5 q 0 2 -4 2 t -4 -2 q 0 -2 4 -2 t 4 2 t -4 2 t -4 -2 Z" stroke="black" id="e33_shape" style="stroke-width: 0.7px;" fill="#FFDEAD" transform="matrix(129.899 0 0 62.4111 588.708 594.653)"/><path d="M 1.25 0 l 1.25 1.25 a 1 1 0 0 0 1.25 -1.25 l -2.5 -3.75 a 2 2 0 0 0 -2.5 0 l -2.5 3.75 a 1 1 0 0 0 1.25 1.25 l 1.25 -1.25 v 3.125 a 1 1 0 0 0 2.5 0 Z" stroke="black" id="e34_shape" style="stroke-width: 1px;" fill="khaki" transform="matrix(66.013 0 0 -18.9323 600.775 436.381)"/></svg>