<svg xmlns="http://www.w3.org/2000/svg" xmlns:xlink="http://www.w3.org/1999/xlink" xmlns:svg="http://www.w3.org/2000/svg" width="100%" height="100%" viewBox="-0.238748 -0.000591257 1166.48 555.001" preserveAspectRatio="xMidYMid meet" zoomAndPan="disable" ><defs id="svgEditorDefs"><path id="svgEditorClosePathDefs" stroke="black" fill="khaki" style="stroke-width: 1px;"/><linearGradient gradientUnits="objectBoundingBox" id="lgrd2-peachpuff-sienna-h" spreadMethod="pad" x1="0%" x2="100%" y1="0%" y2="0%"><stop offset="0%" style="stop-color:peachpuff;  stop-opacity:1;"/><stop offset="100%" style="stop-color:sienna;  stop-opacity:1"/></linearGradient><linearGradient gradientUnits="objectBoundingBox" id="lgrd2-fire" spreadMethod="pad" x1="0%" x2="100%" y1="0%" y2="0%"><stop offset="0%" style="stop-color:rgb(255,255,0);stop-opacity:1"/><stop offset="100%" style="stop-color:rgb(255,0,0);stop-opacity:1"/></linearGradient><linearGradient gradientUnits="objectBoundingBox" id="lgrd2-peachpuff-sienna-v" spreadMethod="pad" x1="0%" x2="0%" y1="0%" y2="100%" gradientTransform="matrix(1 0 0 1 0 0) scale(1.29003 1.29003)"><stop offset="0%" style="stop-color:peachpuff;  stop-opacity:0.84;"/><stop offset="100%" style="stop-color:sienna;  stop-opacity:1"/></linearGradient></defs><rect id="svgEditorBackground" x="0" y="0" width="1166" height="555" style="fill: none; stroke: none;"/><path stroke="black" id="e20_shape" style="stroke-width: 0.7px;" fill="#5A2906" transform="matrix(129.195 0 0 54.6602 587.025 283.893)" d="M-4.000000953674316,-2.5000016689300537v5q0,1.999999761581421,4,1.999999761581421t4,-2v-5q0,2,-4,2t-4,-2q0,-2,4,-2t4,2t-4,2t-4,-2Z"/><path d="M 1.25 0 l 1.25 1.25 a 1 1 0 0 0 1.25 -1.25 l -2.5 -3.75 a 2 2 0 0 0 -2.5 0 l -2.5 3.75 a 1 1 0 0 0 1.25 1.25 l 1.25 -1.25 v 3.125 a 1 1 0 0 0 2.5 0 Z" stroke="black" id="e32_shape" style="stroke-width: 1px;" fill="khaki" transform="matrix(76.0077 0 0 -12.9708 596.051 145.254)"/></svg>